<svg width="48" height="48" viewBox="0 0 48 48" fill="none" xmlns="http://www.w3.org/2000/svg">
<path d="M31.5826 4.00184C32.3401 4.04922 32.9245 4.69846 32.9043 5.47015V7.53994C38.9217 8.12372 42 11.4495 42 17.4289V33.9695C42 40.6211 38.2087 44 30.7478 44H17.2522C9.7913 44 6 40.6211 6 33.9695V17.4289C6 13.4486 7.35652 10.6004 10.1391 8.93748L10.3343 8.82624C10.7377 8.63797 11.2108 8.65523 11.604 8.88352C12.0628 9.14987 12.3337 9.65752 12.3034 10.194C12.273 10.7304 11.9467 11.2031 11.4609 11.4142C9.61739 12.511 8.74783 14.4215 8.74783 17.4289V17.9596H34.1217C34.8805 17.9596 35.4957 18.5853 35.4957 19.3572C35.4957 20.129 34.8805 20.7547 34.1217 20.7547H8.74783V33.9695C8.74783 39.0467 11.2174 41.1518 17.2522 41.1872H30.7478C36.6957 41.1872 39.2348 39.029 39.2348 33.9518V17.4112C39.2348 12.9886 37.3043 10.8481 32.9043 10.335V11.6795C32.8029 12.3961 32.1861 12.9193 31.4748 12.892C30.7635 12.8647 30.1872 12.2957 30.1391 11.5734V5.34632L30.1646 5.12511C30.2212 4.83524 30.3672 4.56899 30.5843 4.36683C30.8556 4.11412 31.2152 3.98264 31.5826 4.00184ZM32.374 32.394L32.5954 32.4083C32.9752 32.4559 33.3313 32.63 33.6062 32.9069C33.9361 33.2392 34.1217 33.6918 34.1217 34.1641C34.1217 35.1411 33.3431 35.9331 32.3826 35.9331C31.4221 35.9331 30.6435 35.1411 30.6435 34.1641C30.6435 33.1871 31.4221 32.3951 32.3826 32.3951L32.374 32.394ZM24.0348 32.3951L24.2529 32.4088C25.1105 32.518 25.7739 33.2622 25.7739 34.1641C25.7739 35.1411 24.9953 35.9331 24.0348 35.9331C23.0743 35.9331 22.2957 35.1411 22.2957 34.1641C22.2957 33.1871 23.0743 32.3951 24.0348 32.3951ZM15.696 32.394L15.9172 32.4083C16.2969 32.4559 16.653 32.63 16.928 32.9069C17.2579 33.2392 17.4435 33.6918 17.4435 34.1641C17.4435 35.1411 16.6648 35.9331 15.7043 35.9331C14.7439 35.9331 13.9652 35.1411 13.9652 34.1641C13.9652 33.1871 14.7439 32.3951 15.7043 32.3951L15.696 32.394ZM32.374 25.23L32.5954 25.2436C32.9752 25.2912 33.3313 25.4654 33.6062 25.7423C33.9361 26.0745 34.1217 26.5272 34.1217 26.9995C34.1217 27.9765 33.3431 28.7685 32.3826 28.7685C31.4221 28.7685 30.6435 27.9765 30.6435 26.9995C30.6435 26.0224 31.4221 25.2304 32.3826 25.2304L32.374 25.23ZM24.0348 25.2304L24.2529 25.2442C25.1105 25.3534 25.7739 26.0976 25.7739 26.9995C25.7739 27.9765 24.9953 28.7685 24.0348 28.7685C23.0743 28.7685 22.2957 27.9765 22.2957 26.9995C22.2957 26.0224 23.0743 25.2304 24.0348 25.2304ZM15.696 25.23L15.9172 25.2436C16.2969 25.2912 16.653 25.4654 16.928 25.7423C17.2579 26.0745 17.4435 26.5272 17.4435 26.9995C17.4435 27.9765 16.6648 28.7685 15.7043 28.7685C14.7439 28.7685 13.9652 27.9765 13.9652 26.9995C13.9652 26.0224 14.7439 25.2304 15.7043 25.2304L15.696 25.23ZM16.4783 4.21289C17.1866 4.21289 17.7818 4.75417 17.8609 5.47015V7.39841H25.7217C26.4805 7.39841 27.0957 8.02412 27.0957 8.79596C27.0957 9.5678 26.4805 10.1935 25.7217 10.1935H17.8261V11.5911C17.8261 11.9648 17.679 12.323 17.4175 12.5856C17.1561 12.8482 16.8022 12.9933 16.4348 12.9886L16.2339 12.9685C15.5793 12.8535 15.0868 12.2689 15.0955 11.5734V5.47015L15.1344 5.26097C15.2949 4.65133 15.8408 4.21289 16.4783 4.21289Z" fill="black"/>
</svg>
