<svg width="48" height="48" viewBox="0 0 48 48" fill="none" xmlns="http://www.w3.org/2000/svg">
<path fill-rule="evenodd" clip-rule="evenodd" d="M8.71901 10.1214C8.72301 10.1214 8.62301 10.2254 8.49701 10.3494C8.01301 10.8194 7.01101 11.7974 7.00091 13.8434C6.98501 16.7054 8.86701 22.0194 17.929 31.0794C26.949 40.0954 32.255 41.9994 35.123 41.9994H35.165C37.211 41.9894 38.187 40.9854 38.659 40.5034C38.803 40.3554 38.919 40.2474 39.001 40.1794C40.993 38.1754 42.013 36.6834 42.0031 35.7274C41.989 34.7514 40.775 33.5974 39.097 32.0014C38.563 31.4934 37.983 30.9414 37.371 30.3294C35.785 28.7474 34.999 29.0174 33.271 29.6254C30.881 30.4634 27.601 31.6034 22.505 26.5054C17.401 21.4054 18.543 18.1294 19.379 15.7394C19.983 14.0114 20.259 13.2234 18.671 11.6354C18.049 11.0154 17.491 10.4274 16.977 9.88738C15.391 8.21938 14.247 7.01338 13.277 6.99938H13.261C12.303 6.99938 10.815 8.02338 8.70901 10.1294C8.71501 10.1234 8.71701 10.1214 8.71901 10.1214ZM35.125 44.9994C30.141 44.9994 23.643 41.0314 15.809 33.2014C7.94501 25.3394 3.97101 18.8214 4.00084 13.8274C4.01901 10.5274 5.74901 8.83738 6.39901 8.20338C6.43301 8.16138 6.54901 8.04738 6.58901 8.00738C9.45701 5.13738 11.391 3.97738 13.315 3.99908C15.549 4.02938 17.139 5.70138 19.151 7.81938C19.649 8.34338 20.189 8.91338 20.791 9.51338C23.711 12.4334 22.879 14.8154 22.211 16.7274C21.483 18.8134 20.853 20.6134 24.625 24.3854C28.401 28.1574 30.201 27.5274 32.279 26.7934C34.193 26.1254 36.569 25.2894 39.493 28.2094C40.085 28.8014 40.647 29.3354 41.165 29.8294C43.293 31.8514 44.973 33.4494 45.0014 35.6894C45.025 37.5994 43.865 39.5454 41.001 42.4114L39.733 41.5514L40.805 42.5994C40.171 43.2494 38.483 44.9814 35.181 44.9994H35.125Z" fill="black"/>
</svg>
