<svg width="48" height="48" viewBox="0 0 48 48" fill="none" xmlns="http://www.w3.org/2000/svg">
<path fill-rule="evenodd" clip-rule="evenodd" d="M12.5 26C20.638 26 21 28.76 21 34.5C21 37.376 21 39.422 19.792 40.92C18.402 42.646 15.872 43 12.5 43C9.128 43 6.598 42.646 5.208 40.92C4 39.422 4 37.378 4 34.55L5.5 34.5H4C4 28.76 4.362 26 12.5 26ZM34.5 26C42.638 26 43 28.76 43 34.5C43 37.376 43 39.422 41.792 40.92C40.402 42.646 37.872 43 34.5 43C31.128 43 28.598 42.646 27.208 40.92C26 39.422 26 37.378 26 34.55L27.5 34.5H26C26 28.76 26.362 26 34.5 26ZM12.9123 29.0009L12.5 29C7.28205 29 7.01446 29.3744 7.00074 33.7541L7.00158 35.4604C7.01106 37.2023 7.07743 38.4606 7.542 39.04C8.072 39.696 9.646 40 12.5 40C15.354 40 16.928 39.694 17.458 39.038C18 38.364 18 36.764 18 34.548C18 29.5476 18 29.0244 12.9123 29.0009ZM34.9123 29.0009L34.5 29C29.2821 29 29.0145 29.3744 29.0007 33.7541L29.0016 35.4604C29.0111 37.2023 29.0774 38.4606 29.542 39.04C30.072 39.696 31.646 40 34.5 40C37.354 40 38.928 39.694 39.458 39.038C40 38.364 40 36.764 40 34.548C40 29.5476 40 29.0244 34.9123 29.0009ZM12.5 4C20.638 4 21 6.76 21 12.5C21 15.376 21 17.422 19.792 18.92C18.402 20.646 15.872 21 12.5 21C9.128 21 6.598 20.646 5.208 18.92C4 17.422 4 15.378 4 12.55L5.5 12.5H4C4 6.76 4.362 4 12.5 4ZM34.5 4C42.638 4 43 6.76 43 12.5C43 15.376 43 17.422 41.792 18.92C40.402 20.646 37.872 21 34.5 21C31.128 21 28.598 20.646 27.208 18.92C26 17.422 26 15.378 26 12.55L27.5 12.5H26C26 6.76 26.362 4 34.5 4ZM12.9123 7.00089L12.5 7C7.28205 7 7.01446 7.37443 7.00074 11.7541L7.00158 13.4604C7.01106 15.2023 7.07743 16.4606 7.542 17.04C8.072 17.696 9.646 18 12.5 18C15.354 18 16.928 17.694 17.458 17.038C18 16.364 18 14.764 18 12.548C18 7.54759 18 7.02443 12.9123 7.00089ZM34.9123 7.00089L34.5 7C29.2821 7 29.0145 7.37443 29.0007 11.7541L29.0016 13.4604C29.0111 15.2023 29.0774 16.4606 29.542 17.04C30.072 17.696 31.646 18 34.5 18C37.354 18 38.928 17.694 39.458 17.038C40 16.364 40 14.764 40 12.548C40 7.54759 40 7.02443 34.9123 7.00089Z" fill="black"/>
</svg>
