<svg width="48" height="48" viewBox="0 0 48 48" fill="none" xmlns="http://www.w3.org/2000/svg">
<path d="M31.5062 3.99982C39.1802 3.99982 44.0002 8.78382 44.0002 16.5058V21.6438C44.0002 22.4778 43.3222 23.1558 42.4882 23.1558H42.4702V23.1198C41.6262 23.1198 40.9422 22.4378 40.9402 21.5938V16.5058C40.9402 10.3998 37.6002 7.05982 31.5122 7.05982H16.5122C10.4202 7.05982 7.0602 10.4198 7.0602 16.5058V31.5058C7.0602 37.5738 10.4202 40.9338 16.5062 40.9338H31.5062C37.5922 40.9338 40.9342 37.5738 40.9342 31.5058C40.9342 30.6618 41.6182 29.9758 42.4642 29.9758C43.3102 29.9758 43.9942 30.6618 43.9942 31.5058C44.0002 39.2158 39.2162 43.9998 31.5122 43.9998H16.5062C8.7842 43.9998 4.0002 39.2158 4.0002 31.5118V16.5118C4.0002 8.78382 8.7842 3.99982 16.5062 3.99982H31.5062Z" fill="black"/>
</svg>
