<svg width="48" height="48" viewBox="0 0 48 48" fill="none" xmlns="http://www.w3.org/2000/svg">
<path fill-rule="evenodd" clip-rule="evenodd" d="M12.7166 12.9667C13.3021 12.3812 14.2525 12.3812 14.8379 12.9667L23.309 21.4378L32.1482 12.5992C32.7336 12.0137 33.684 12.0137 34.2695 12.5992C34.855 13.1847 34.855 14.135 34.2695 14.7205L25.4304 23.5591L34.2834 32.4121C34.8689 32.9976 34.8689 33.9479 34.2834 34.5334C33.6979 35.1189 32.7475 35.1189 32.1621 34.5334L23.309 25.6804L14.4705 34.5195C13.8836 35.1064 12.9347 35.105 12.3492 34.5195C11.7637 33.934 11.7623 32.9851 12.3492 32.3982L21.1877 23.5591L12.7166 15.088C12.1311 14.5025 12.1311 13.5522 12.7166 12.9667Z" fill="black"/>
</svg>
