<svg width="48" height="48" viewBox="0 0 48 48" fill="none" xmlns="http://www.w3.org/2000/svg">
<path fill-rule="evenodd" clip-rule="evenodd" d="M18.0656 14.698L23.9984 20.6293L29.928 14.7046C30.8589 13.774 32.3647 13.774 33.2955 14.7046C34.2264 15.6353 34.2264 17.1408 33.2955 18.0715L27.3659 23.9961L33.3019 29.9344C34.2327 30.865 34.2327 32.3706 33.3019 33.3012C32.8381 33.7681 32.2249 34 31.6181 34C31.0082 34 30.3982 33.7681 29.9344 33.3012L23.9984 27.3629L18.072 33.292C17.6081 33.7589 16.9982 33.9908 16.3882 33.9908C15.7783 33.9908 15.1683 33.7589 14.7045 33.292C13.7736 32.3614 13.7736 30.8558 14.7045 29.9252L20.6309 23.9961L14.6981 18.0648C13.7673 17.1342 13.7673 15.6286 14.6981 14.698C15.6321 13.7673 17.138 13.7673 18.0656 14.698Z" fill="black"/>
</svg>
