<svg width="48" height="48" viewBox="0 0 48 48" fill="none" xmlns="http://www.w3.org/2000/svg">
<path fill-rule="evenodd" clip-rule="evenodd" d="M24.0274 6C26.0674 6 27.8934 7.058 28.9054 8.83L43.2774 33.958C44.2834 35.716 44.2774 37.814 43.2594 39.568C42.2414 41.324 40.4234 42.372 38.3974 42.372H9.63142C7.60342 42.372 5.78542 41.324 4.76742 39.568C3.74942 37.814 3.74342 35.716 4.74942 33.958L19.1494 8.826C20.1614 7.056 21.9834 6 24.0254 6H24.0274ZM24.0254 9C23.0734 9 22.2254 9.492 21.7494 10.318L7.35342 35.448C6.88542 36.268 6.88942 37.246 7.36342 38.064C7.83742 38.882 8.68542 39.372 9.63142 39.372H38.3974C39.3414 39.372 40.1894 38.882 40.6634 38.064C41.1394 37.246 41.1434 36.268 40.6714 35.448L26.3014 10.318C25.8274 9.492 24.9794 9 24.0254 9ZM24.0118 30.998C25.1178 30.998 26.0118 31.892 26.0118 32.998C26.0118 34.104 25.1178 34.998 24.0118 34.998C22.9058 34.998 22.0018 34.104 22.0018 32.998C22.0018 31.892 22.8878 30.998 23.9918 30.998H24.0118ZM24.0078 19.128C24.8358 19.128 25.5078 19.8 25.5078 20.628V26.828C25.5078 27.656 24.8358 28.328 24.0078 28.328C23.1798 28.328 22.5078 27.656 22.5078 26.828V20.628C22.5078 19.8 23.1798 19.128 24.0078 19.128Z" fill="black"/>
</svg>
