<svg width="48" height="48" viewBox="0 0 48 48" fill="none" xmlns="http://www.w3.org/2000/svg">
<path fill-rule="evenodd" clip-rule="evenodd" d="M24 4C35.028 4 44 12.972 44 24C44 35.028 35.028 44 24 44C12.972 44 4 35.028 4 24C4 12.972 12.972 4 24 4ZM24 7C14.626 7 7 14.626 7 24C7 33.374 14.626 41 24 41C33.374 41 41 33.374 41 24C41 14.626 33.374 7 24 7ZM24.0078 29.5918C25.1138 29.5918 26.0078 30.4858 26.0078 31.5918C26.0078 32.6978 25.1138 33.5918 24.0078 33.5918C22.9018 33.5918 21.9978 32.6978 21.9978 31.5918C21.9978 30.4858 22.8838 29.5918 23.9878 29.5918H24.0078ZM23.9882 14.908C24.8162 14.908 25.4882 15.58 25.4882 16.408V25.246C25.4882 26.074 24.8162 26.746 23.9882 26.746C23.1602 26.746 22.4882 26.074 22.4882 25.246V16.408C22.4882 15.58 23.1602 14.908 23.9882 14.908Z" fill="black"/>
</svg>
