<svg width="48" height="48" viewBox="0 0 48 48" fill="none" xmlns="http://www.w3.org/2000/svg">
<path fill-rule="evenodd" clip-rule="evenodd" d="M41.5009 40.8791C42.3289 40.8791 43.0009 41.5511 43.0009 42.3791C43.0009 43.2071 42.3289 43.8791 41.5009 43.8791H26.9949C26.1669 43.8791 25.4949 43.2071 25.4949 42.3791C25.4949 41.5511 26.1669 40.8791 26.9949 40.8791H41.5009ZM32.2325 7.30729C32.3325 7.38529 35.6785 9.98529 35.6785 9.98529C36.8945 10.7093 37.8445 12.0033 38.2045 13.5353C38.5625 15.0513 38.3025 16.6153 37.4685 17.9373C37.463 17.9461 37.4575 17.9548 37.4381 17.9807L37.4231 18.0008C37.2877 18.1792 36.6992 18.9233 33.7291 22.6445C33.7015 22.6932 33.6703 22.7389 33.6361 22.7833C33.5861 22.8487 33.5316 22.9088 33.4734 22.9636C33.2708 23.2187 33.0568 23.4867 32.8318 23.7685L32.376 24.3394C31.4354 25.5174 30.3197 26.9142 28.9961 28.5709L28.3168 29.4212C25.7615 32.6195 22.4889 36.7145 18.2965 41.9593C17.3785 43.1033 16.0025 43.7693 14.5245 43.7873L7.24655 43.8793H7.22655C6.53255 43.8793 5.92855 43.4033 5.76655 42.7253L4.12855 35.7833C3.79055 34.3453 4.12655 32.8613 5.04855 31.7093L23.8885 8.14529C23.8965 8.13729 23.9025 8.12729 23.9105 8.11929C25.9765 5.64929 29.7125 5.28529 32.2325 7.30729ZM21.788 15.574L7.39055 33.5833C7.04855 34.0113 6.92255 34.5633 7.04855 35.0933L8.41055 40.8633L14.4885 40.7873C15.0665 40.7813 15.6005 40.5233 15.9545 40.0833C17.7775 37.8025 20.0687 34.9358 22.4243 31.988L23.2577 30.9451L24.0925 29.9004C26.3016 27.1358 28.4841 24.4041 30.3103 22.1177L21.788 15.574ZM26.2205 10.0333L23.662 13.23L32.1835 19.7719C33.8238 17.7174 34.9028 16.3643 35.0025 16.2353C35.3305 15.7033 35.4585 14.9513 35.2865 14.2273C35.1105 13.4853 34.6485 12.8553 33.9825 12.4533C33.8405 12.3553 30.4705 9.73929 30.3665 9.65729C29.0985 8.64129 27.2485 8.81729 26.2205 10.0333Z" fill="black"/>
</svg>
