<svg width="48" height="48" viewBox="0 0 48 48" fill="none" xmlns="http://www.w3.org/2000/svg">
<path fill-rule="evenodd" clip-rule="evenodd" d="M40.8348 6.4395C41.4208 7.0255 41.4208 7.9755 40.8348 8.5615L9.2868 40.1075C8.9948 40.4015 8.6108 40.5475 8.2268 40.5475C7.8428 40.5475 7.4588 40.4015 7.1668 40.1075C6.5808 39.5215 6.5808 38.5735 7.1668 37.9875L11.1107 34.046C8.28306 31.4597 5.88443 27.9733 4.123 23.8679C3.959 23.4879 3.959 23.0599 4.123 22.6819C6.165 17.9539 9.041 14.0399 12.441 11.3659C19.0267 6.154 27.6846 5.87735 34.5374 10.6166L38.7148 6.4395C39.3008 5.8535 40.2488 5.8535 40.8348 6.4395ZM40.0944 16.0815C41.5424 18.0035 42.8144 20.2255 43.8764 22.6775C44.0424 23.0575 44.0424 23.4895 43.8764 23.8675C39.6844 33.5815 32.2544 39.3795 24.0004 39.3795C22.1264 39.3795 20.2624 39.0755 18.4624 38.4775C17.6764 38.2155 17.2504 37.3655 17.5124 36.5795C17.7744 35.7915 18.6204 35.3735 19.4104 35.6295C20.9044 36.1275 22.4484 36.3795 24.0004 36.3795C30.8564 36.3795 37.1224 31.4955 40.8604 23.2735C39.9484 21.2755 38.8864 19.4655 37.6984 17.8855C37.2004 17.2235 37.3324 16.2815 37.9944 15.7835C38.6544 15.2855 39.5964 15.4215 40.0944 16.0815ZM14.299 13.7219C11.427 15.9819 8.961 19.2739 7.141 23.2779C8.72789 26.7828 10.8126 29.7386 13.2341 31.9214L17.5097 27.6462C16.6399 26.3664 16.1718 24.8574 16.1718 23.2771C16.1718 18.9571 19.6838 15.4431 23.9998 15.4431C25.5658 15.4431 27.0976 15.9199 28.3729 16.7817L32.376 12.7789C26.6703 9.09045 19.726 9.42693 14.299 13.7219ZM30.475 22.9231C31.291 23.0691 31.833 23.8491 31.687 24.6651C31.113 27.8511 28.589 30.3791 25.405 30.9591C25.315 30.9751 25.223 30.9831 25.135 30.9831C24.425 30.9831 23.793 30.4751 23.661 29.7511C23.513 28.9371 24.053 28.1551 24.869 28.0071C26.829 27.6511 28.381 26.0951 28.733 24.1331C28.881 23.3191 29.661 22.7831 30.475 22.9231ZM23.9998 18.4431C21.3378 18.4431 19.1718 20.6111 19.1718 23.2771C19.1718 24.0479 19.3533 24.7919 19.6953 25.46L26.1866 18.968C25.5183 18.6274 24.7666 18.4431 23.9998 18.4431Z" fill="black"/>
</svg>
