<svg width="48" height="48" viewBox="0 0 48 48" fill="none" xmlns="http://www.w3.org/2000/svg">
<path fill-rule="evenodd" clip-rule="evenodd" d="M24.7498 4.00402C30.5898 4.00402 35.3458 8.76002 35.3458 14.606L35.3456 17.7592C38.896 18.9948 41.45 22.3748 41.45 26.3416V34.9196C41.45 39.9296 37.376 44.0036 32.366 44.0036H17.084C12.074 44.0036 8 39.9296 8 34.9196V26.3416C8 22.3756 10.553 18.9961 14.1024 17.7599L14.1038 14.606C14.1158 11.726 15.2298 9.06802 17.2398 7.07602C19.2518 5.08202 21.9078 3.92802 24.7498 4.00402ZM32.366 20.2576H17.084C13.728 20.2576 11 22.9856 11 26.3416V34.9196C11 38.2756 13.728 41.0036 17.084 41.0036H32.366C35.72 41.0036 38.45 38.2756 38.45 34.9196V26.3416C38.45 22.9856 35.72 20.2576 32.366 20.2576ZM24.7246 26.9092C25.5526 26.9092 26.2246 27.5812 26.2246 28.4092V32.8512C26.2246 33.6792 25.5526 34.3512 24.7246 34.3512C23.8966 34.3512 23.2246 33.6792 23.2246 32.8512V28.4092C23.2246 27.5812 23.8966 26.9092 24.7246 26.9092ZM24.7438 7.00402H24.7118C22.6858 7.00402 20.7878 7.78402 19.3538 9.20602C17.9098 10.634 17.1118 12.54 17.1038 14.572L17.102 17.2565H32.344L32.3458 14.606C32.3458 10.414 28.9358 7.00402 24.7438 7.00402Z" fill="black"/>
</svg>
