<svg width="48" height="48" viewBox="0 0 48 48" fill="none" xmlns="http://www.w3.org/2000/svg">
<path fill-rule="evenodd" clip-rule="evenodd" d="M33.3178 4C39.9778 4 44.9998 9.434 44.9998 16.64V30.376C44.9998 34.064 43.6958 37.396 41.3258 39.76C39.1998 41.878 36.4418 43 33.3498 43H13.6438C10.5578 43 7.80182 41.88 5.67382 39.76C3.30382 37.396 1.99982 34.064 1.99982 30.376V16.64C1.99982 9.434 7.02182 4 13.6818 4H33.3178ZM33.3178 7H13.6818C8.65182 7 4.99982 11.054 4.99982 16.64V30.376C4.99982 33.262 5.99182 35.84 7.79182 37.634C9.34382 39.184 11.3698 40 13.6498 40H33.3178C33.3218 39.996 33.3378 40 33.3498 40C35.6318 40 37.6558 39.184 39.2078 37.634C41.0098 35.84 41.9998 33.262 41.9998 30.376V16.64C41.9998 11.054 38.3478 7 33.3178 7ZM36.4698 16.2576C36.9918 16.8996 36.8938 17.8436 36.2518 18.3676L27.3638 25.5916C26.2398 26.4836 24.8958 26.9296 23.5538 26.9296C22.2158 26.9296 20.8818 26.4876 19.7658 25.6036L10.7958 18.3716C10.1498 17.8516 10.0498 16.9056 10.5678 16.2616C11.0898 15.6196 12.0338 15.5176 12.6778 16.0356L21.6398 23.2596C22.7658 24.1516 24.3518 24.1516 25.4858 23.2516L34.3578 16.0396C35.0018 15.5136 35.9458 15.6136 36.4698 16.2576Z" fill="black"/>
</svg>
