<svg width="48" height="48" viewBox="0 0 48 48" fill="none" xmlns="http://www.w3.org/2000/svg">
<path fill-rule="evenodd" clip-rule="evenodd" d="M36.2415 21.4303C37.9517 21.4303 39.3342 22.7713 39.3342 24.4303C39.3342 26.0893 37.9517 27.4303 36.2415 27.4303C34.5312 27.4303 33.1333 26.0893 33.1333 24.4303C33.1333 22.7713 34.5033 21.4303 36.2105 21.4303L36.2415 21.4303ZM23.8405 21.4303C25.5508 21.4303 26.9333 22.7713 26.9333 24.4303C26.9333 26.0893 25.5508 27.4303 23.8405 27.4303C22.1303 27.4303 20.7354 26.0893 20.7354 24.4303C20.7354 22.7713 22.1024 21.4303 23.8127 21.4303L23.8405 21.4303ZM11.4424 21.4303C13.1527 21.4303 14.5351 22.7713 14.5351 24.4303C14.5351 26.0893 13.1527 27.4303 11.4424 27.4303C9.73211 27.4303 8.3342 26.0893 8.3342 24.4303C8.3342 22.7713 9.70428 21.4303 11.4146 21.4303L11.4424 21.4303Z" fill="black"/>
</svg>
