<svg width="48" height="48" viewBox="0 0 48 48" fill="none" xmlns="http://www.w3.org/2000/svg">
<path fill-rule="evenodd" clip-rule="evenodd" d="M36.2415 21.4303C37.9518 21.4303 39.3342 22.7713 39.3342 24.4303C39.3342 26.0893 37.9518 27.4303 36.2415 27.4303C34.5312 27.4303 33.1333 26.0893 33.1333 24.4303C33.1333 22.7713 34.5034 21.4303 36.2106 21.4303L36.2415 21.4303ZM23.8406 21.4303C25.5508 21.4303 26.9333 22.7713 26.9333 24.4303C26.9333 26.0893 25.5508 27.4303 23.8406 27.4303C22.1303 27.4303 20.7355 26.0893 20.7355 24.4303C20.7355 22.7713 22.1025 21.4303 23.8127 21.4303L23.8406 21.4303ZM11.4424 21.4303C13.1527 21.4303 14.5352 22.7713 14.5352 24.4303C14.5352 26.0893 13.1527 27.4303 11.4424 27.4303C9.73214 27.4303 8.33423 26.0893 8.33423 24.4303C8.33423 22.7713 9.70431 21.4303 11.4146 21.4303L11.4424 21.4303Z" fill="black"/>
</svg>
