<svg width="48" height="48" viewBox="0 0 48 48" fill="none" xmlns="http://www.w3.org/2000/svg">
<path fill-rule="evenodd" clip-rule="evenodd" d="M26.8342 36.8376C26.8342 38.5478 25.4932 39.9303 23.8342 39.9303C22.1752 39.9303 20.8342 38.5478 20.8342 36.8376C20.8342 35.1273 22.1752 33.7294 23.8342 33.7294C25.4932 33.7294 26.8342 35.0994 26.8342 36.8066L26.8342 36.8376ZM26.8342 24.4366C26.8342 26.1469 25.4932 27.5294 23.8342 27.5294C22.1752 27.5294 20.8342 26.1469 20.8342 24.4366C20.8342 22.7264 22.1752 21.3315 23.8342 21.3315C25.4932 21.3315 26.8342 22.6985 26.8342 24.4088L26.8342 24.4366ZM26.8342 12.0385C26.8342 13.7488 25.4932 15.1312 23.8342 15.1312C22.1752 15.1312 20.8342 13.7488 20.8342 12.0385C20.8342 10.3282 22.1752 8.9303 23.8342 8.9303C25.4932 8.9303 26.8342 10.3004 26.8342 12.0107L26.8342 12.0385Z" fill="black"/>
</svg>
