<svg width="48" height="48" viewBox="0 0 48 48" fill="none" xmlns="http://www.w3.org/2000/svg">
<path fill-rule="evenodd" clip-rule="evenodd" d="M26.8342 36.8376C26.8342 38.5478 25.4932 39.9303 23.8342 39.9303C22.1752 39.9303 20.8342 38.5478 20.8342 36.8376C20.8342 35.1273 22.1752 33.7294 23.8342 33.7294C25.4932 33.7294 26.8342 35.0994 26.8342 36.8066L26.8342 36.8376ZM26.8342 24.4366C26.8342 26.1469 25.4932 27.5294 23.8342 27.5294C22.1752 27.5294 20.8342 26.1469 20.8342 24.4366C20.8342 22.7264 22.1752 21.3315 23.8342 21.3315C25.4932 21.3315 26.8342 22.6985 26.8342 24.4088L26.8342 24.4366ZM26.8342 12.0385C26.8342 13.7488 25.4932 15.1312 23.8342 15.1312C22.1752 15.1312 20.8342 13.7488 20.8342 12.0385C20.8342 10.3282 22.1752 8.9303 23.8342 8.9303C25.4932 8.9303 26.8342 10.3004 26.8342 12.0107L26.8342 12.0385Z" fill="black"/>
<path fill-rule="evenodd" clip-rule="evenodd" d="M39 36.9073C39 38.6175 37.659 40 36 40C34.341 40 33 38.6175 33 36.9073C33 35.197 34.341 33.7991 36 33.7991C37.659 33.7991 39 35.1692 39 36.8763L39 36.9073ZM39 24.5063C39 26.2166 37.659 27.5991 36 27.5991C34.341 27.5991 33 26.2166 33 24.5063C33 22.7961 34.341 21.4012 36 21.4012C37.659 21.4012 39 22.7682 39 24.4785L39 24.5063ZM39 12.1082C39 13.8185 37.659 15.2009 36 15.2009C34.341 15.2009 33 13.8185 33 12.1082C33 10.3979 34.341 9 36 9C37.659 9 39 10.3701 39 12.0804L39 12.1082Z" fill="black"/>
<path fill-rule="evenodd" clip-rule="evenodd" d="M15 36.9073C15 38.6175 13.659 40 12 40C10.341 40 9 38.6175 9 36.9073C9 35.197 10.341 33.7991 12 33.7991C13.659 33.7991 15 35.1692 15 36.8763L15 36.9073ZM15 24.5063C15 26.2166 13.659 27.5991 12 27.5991C10.341 27.5991 9 26.2166 9 24.5063C9 22.7961 10.341 21.4012 12 21.4012C13.659 21.4012 15 22.7682 15 24.4785L15 24.5063ZM15 12.1082C15 13.8185 13.659 15.2009 12 15.2009C10.341 15.2009 9 13.8185 9 12.1082C9 10.3979 10.341 9 12 9C13.659 9 15 10.3701 15 12.0804L15 12.1082Z" fill="black"/>
</svg>
