<svg width="48" height="48" viewBox="0 0 48 48" fill="none" xmlns="http://www.w3.org/2000/svg">
<path fill-rule="evenodd" clip-rule="evenodd" d="M13.3684 21.7609L21.7576 21.7598L21.7611 13.3776C21.7612 12.0613 22.826 10.9965 24.1423 10.9964C25.4585 10.9963 26.5231 12.0608 26.523 13.3771L26.5194 21.7593L34.9158 21.761C36.2321 21.7608 37.2966 22.8254 37.2965 24.1417C37.2987 24.7998 37.0291 25.3973 36.6 25.8264C36.1687 26.2577 35.5735 26.525 34.9153 26.5228L26.519 26.5212L26.5208 34.9043C26.523 35.5625 26.2556 36.1577 25.8243 36.589C25.393 37.0203 24.7978 37.2877 24.1397 37.2855C22.8234 37.2856 21.7588 36.2211 21.759 34.9048L21.7571 26.5217L13.3679 26.5227C12.0516 26.5229 10.9871 25.4583 10.9872 24.142C10.9896 22.8235 12.0544 21.7587 13.3684 21.7609Z" fill="black"/>
</svg>
