<svg width="48" height="48" viewBox="0 0 48 48" fill="none" xmlns="http://www.w3.org/2000/svg">
<path fill-rule="evenodd" clip-rule="evenodd" d="M23.5 8.50006C24.328 8.50006 25 9.17206 25 10.0001V21.98L37.5 21.9804C38.328 21.9804 39 22.6524 39 23.4804C39 24.3084 38.328 24.9804 37.5 24.9804L25 24.98V37.5001C25 38.3281 24.328 39.0001 23.5 39.0001C22.672 39.0001 22 38.3281 22 37.5001V24.98L9.5 24.9804C8.67 24.9804 8 24.3084 8 23.4804C8 22.6524 8.67 21.9804 9.5 21.9804L22 21.98V10.0001C22 9.17206 22.672 8.50006 23.5 8.50006Z" fill="black"/>
</svg>
