<svg width="48" height="48" viewBox="0 0 48 48" fill="none" xmlns="http://www.w3.org/2000/svg">
<path d="M23.9996 3.99957C35.0276 3.99957 43.9996 12.9696 43.9996 23.9996C43.9996 35.0276 35.0276 43.9996 23.9996 43.9996C17.7456 43.9996 11.9656 41.1536 8.1456 36.1956C7.6556 35.5576 7.7756 34.6436 8.4116 34.1556C9.0476 33.6636 9.9576 33.7856 10.4496 34.4196C13.7156 38.6596 18.6536 41.0916 23.9996 41.0916C33.4236 41.0916 41.0916 33.4256 41.0916 23.9996C41.0916 14.5756 33.4236 6.90757 23.9996 6.90757C14.5756 6.90757 6.9096 14.5756 6.9096 23.9996C6.9096 24.8756 6.9736 25.7456 7.1036 26.5976C7.2236 27.3896 6.6796 28.1316 5.8856 28.2536C5.0876 28.3856 4.3496 27.8316 4.2296 27.0376C4.0776 26.0416 3.9996 25.0196 3.9996 23.9996C3.9996 12.9696 12.9716 3.99957 23.9996 3.99957Z" fill="black"/>
</svg>
