<svg width="48" height="48" viewBox="0 0 48 48" fill="none" xmlns="http://www.w3.org/2000/svg">
<path d="M43.5111 41.2131L36.6363 34.4917L36.4752 34.2466C36.1756 33.9483 35.7659 33.7803 35.3383 33.7803C34.9107 33.7803 34.5011 33.9483 34.2015 34.2466C28.359 39.6067 19.3563 39.898 13.164 34.9274C6.97172 29.9568 5.51134 21.2667 9.75137 14.6203C13.9914 7.97394 22.6161 5.43369 29.9057 8.68427C37.1953 11.9349 40.8876 19.9676 38.534 27.4552C38.3645 27.9961 38.5031 28.5844 38.8975 28.9983C39.2919 29.4123 39.8822 29.5891 40.4461 29.4622C41.01 29.3352 41.4618 28.9238 41.6313 28.3829C44.4448 19.4973 40.1955 9.93511 31.6322 5.88212C23.069 1.82912 12.7617 4.50165 7.37811 12.1708C1.99454 19.84 3.15036 30.2043 10.0979 36.559C17.0454 42.9137 27.6996 43.3518 35.1683 37.5898L41.2553 43.541C41.884 44.153 42.9003 44.153 43.529 43.541C44.157 42.9204 44.157 41.9212 43.529 41.3006L43.5111 41.2131Z" fill="black"/>
</svg>
