<svg width="48" height="48" viewBox="0 0 48 48" fill="none" xmlns="http://www.w3.org/2000/svg">
<path fill-rule="evenodd" clip-rule="evenodd" d="M23.4776 4C34.2176 4 42.9536 12.736 42.9536 23.476C42.9536 28.5431 41.0091 33.1646 37.8269 36.633L44.0884 42.8814C44.6744 43.4674 44.6764 44.4154 44.0904 45.0014C43.7984 45.2974 43.4124 45.4434 43.0284 45.4434C42.6464 45.4434 42.2624 45.2974 41.9684 45.0054L35.6314 38.686C32.2978 41.3557 28.071 42.954 23.4776 42.954C12.7376 42.954 3.99963 34.216 3.99963 23.476C3.99963 12.736 12.7376 4 23.4776 4ZM23.4776 7C14.3916 7 6.99963 14.39 6.99963 23.476C6.99963 32.562 14.3916 39.954 23.4776 39.954C32.5616 39.954 39.9536 32.562 39.9536 23.476C39.9536 14.39 32.5616 7 23.4776 7Z" fill="black"/>
</svg>
