<svg width="48" height="48" viewBox="0 0 48 48" fill="none" xmlns="http://www.w3.org/2000/svg">
<path fill-rule="evenodd" clip-rule="evenodd" d="M24.0057 8.00098C32.2777 8.00698 39.7057 13.805 43.8777 23.513C44.0417 23.891 44.0417 24.319 43.8777 24.697C39.7077 34.407 32.2777 40.205 24.0057 40.211H23.9937C15.7217 40.205 8.29374 34.407 4.12174 24.697C3.95974 24.319 3.95974 23.891 4.12174 23.513C8.29374 13.805 15.7237 8.00698 23.9937 8.00098H24.0057ZM23.9997 11.001C17.1277 11.003 10.8597 15.889 7.13974 24.105C10.8597 32.323 17.1257 37.209 23.9997 37.211C30.8737 37.209 37.1397 32.323 40.8597 24.105C37.1397 15.889 30.8737 11.003 23.9997 11.001ZM23.9991 16.2826C28.3131 16.2826 31.8231 19.7926 31.8231 24.1066C31.8231 28.4186 28.3131 31.9266 23.9991 31.9266C19.6851 31.9266 16.1771 28.4186 16.1771 24.1066C16.1771 19.7926 19.6851 16.2826 23.9991 16.2826ZM23.9991 19.2826C21.3391 19.2826 19.1771 21.4466 19.1771 24.1066C19.1771 26.7646 21.3391 28.9266 23.9991 28.9266C26.6591 28.9266 28.8231 26.7646 28.8231 24.1066C28.8231 21.4466 26.6591 19.2826 23.9991 19.2826Z" fill="black"/>
</svg>
