<svg width="48" height="48" viewBox="0 0 48 48" fill="none" xmlns="http://www.w3.org/2000/svg">
<path fill-rule="evenodd" clip-rule="evenodd" d="M24 4C35.028 4 44 12.972 44 24C44 35.028 35.028 44 24 44C12.972 44 4 35.028 4 24C4 12.972 12.972 4 24 4ZM24 7C14.626 7 7 14.626 7 24C7 33.374 14.626 41 24 41C33.374 41 41 33.374 41 24C41 14.626 33.374 7 24 7ZM23.3224 14.1908C24.1524 14.1908 24.8224 14.8628 24.8224 15.6908V24.5348L31.6324 28.5948C32.3424 29.0208 32.5764 29.9408 32.1524 30.6528C31.8704 31.1228 31.3724 31.3848 30.8624 31.3848C30.6004 31.3848 30.3364 31.3168 30.0944 31.1748L22.5544 26.6768C22.1024 26.4048 21.8224 25.9148 21.8224 25.3868V15.6908C21.8224 14.8628 22.4944 14.1908 23.3224 14.1908Z" fill="black"/>
</svg>
