<svg width="48" height="48" viewBox="0 0 48 48" fill="none" xmlns="http://www.w3.org/2000/svg">
<path fill-rule="evenodd" clip-rule="evenodd" d="M23.7734 28.828L23.9992 28.8281L24.5044 28.8298C28.3656 28.8552 37.1894 29.2453 37.1894 35.226C37.1894 41.1675 28.6732 41.555 24.5646 41.5802L23.0424 41.5802C19.181 41.5548 10.3554 41.1653 10.3554 35.192C10.3554 29.243 19.181 28.8551 23.0424 28.8298L23.5476 28.8281C23.6259 28.828 23.7013 28.828 23.7734 28.828ZM23.7734 31.828C19.0214 31.828 13.3554 32.412 13.3554 35.192C13.3554 37.9091 18.6832 38.5443 23.3391 38.5803L23.7734 38.582C28.5254 38.582 34.1894 38 34.1894 35.226C34.1894 32.418 28.5254 31.828 23.7734 31.828ZM39.6806 28.0164C44.5266 28.7424 45.5446 31.0184 45.5446 32.8004C45.5446 33.8884 45.1166 35.8744 42.2566 36.9644C42.0806 37.0304 41.9006 37.0624 41.7226 37.0624C41.1186 37.0624 40.5486 36.6944 40.3206 36.0964C40.0246 35.3224 40.4146 34.4544 41.1886 34.1604C42.5446 33.6444 42.5446 33.0744 42.5446 32.8004C42.5446 31.9244 41.4306 31.3124 39.2346 30.9844C38.4166 30.8604 37.8506 30.0984 37.9726 29.2764C38.0946 28.4564 38.8546 27.9104 39.6806 28.0164ZM9.57218 29.2764C9.69418 30.0984 9.12818 30.8604 8.31018 30.9844C6.11418 31.3124 5.00018 31.9244 5.00018 32.8004C5.00018 33.0744 5.00018 33.6424 6.35818 34.1604C7.13218 34.4544 7.52218 35.3224 7.22618 36.0964C6.99818 36.6944 6.42818 37.0624 5.82418 37.0624C5.64618 37.0624 5.46618 37.0304 5.29018 36.9644C2.42818 35.8724 2.00018 33.8864 2.00018 32.8004C2.00018 31.0204 3.01818 28.7424 7.86618 28.0164C8.69218 27.9124 9.44818 28.4564 9.57218 29.2764ZM23.7734 8C28.8134 8 32.9114 12.1 32.9114 17.138C32.9114 22.176 28.8134 26.276 23.7734 26.276H23.7194C21.2794 26.268 18.9934 25.312 17.2814 23.584C15.5654 21.858 14.6274 19.566 14.6373 17.132C14.6373 12.1 18.7354 8 23.7734 8ZM23.7734 11C20.3894 11 17.6373 13.754 17.6373 17.138C17.6314 18.778 18.2594 20.312 19.4094 21.47C20.5594 22.628 22.0914 23.27 23.7234 23.276L23.7734 24.776V23.276C27.1574 23.276 29.9114 20.524 29.9114 17.138C29.9114 13.754 27.1574 11 23.7734 11ZM36.1514 9.959C39.6674 10.537 42.2214 13.545 42.2214 17.111C42.2134 20.701 39.5314 23.781 35.9814 24.279C35.9114 24.289 35.8414 24.293 35.7734 24.293C35.0374 24.293 34.3954 23.751 34.2894 23.001C34.1754 22.179 34.7454 21.421 35.5674 21.307C37.6474 21.015 39.2174 19.211 39.2214 17.107C39.2214 15.021 37.7254 13.257 35.6634 12.919C34.8474 12.785 34.2934 12.013 34.4274 11.195C34.5634 10.377 35.3294 9.829 36.1514 9.959ZM13.1194 11.195C13.2534 12.013 12.6994 12.785 11.8834 12.919C9.82138 13.257 8.32538 15.021 8.32538 17.111C8.32938 19.211 9.89938 21.017 11.9774 21.307C12.7994 21.421 13.3694 22.179 13.2554 23.001C13.1494 23.751 12.5074 24.293 11.7714 24.293C11.7034 24.293 11.6334 24.289 11.5634 24.279C8.01338 23.781 5.33338 20.701 5.32538 17.115C5.32538 13.545 7.87938 10.537 11.3954 9.959C12.2374 9.827 12.9834 10.381 13.1194 11.195Z" fill="black"/>
</svg>
