<svg width="48" height="48" viewBox="0 0 48 48" fill="none" xmlns="http://www.w3.org/2000/svg">
<path fill-rule="evenodd" clip-rule="evenodd" d="M23.7734 28.828L23.9992 28.8281L24.5044 28.8298C28.3656 28.8552 37.1894 29.2453 37.1894 35.226C37.1894 41.1675 28.6732 41.555 24.5646 41.5802L23.0424 41.5802C19.181 41.5548 10.3554 41.1653 10.3554 35.192C10.3554 29.243 19.181 28.8551 23.0424 28.8298L23.5476 28.8281C23.6259 28.828 23.7013 28.828 23.7734 28.828ZM23.7734 31.828C19.0214 31.828 13.3554 32.412 13.3554 35.192C13.3554 37.9091 18.6832 38.5443 23.3391 38.5803L23.7734 38.582C28.5254 38.582 34.1894 38 34.1894 35.226C34.1894 32.418 28.5254 31.828 23.7734 31.828ZM23.7734 8C28.8134 8 32.9114 12.1 32.9114 17.138C32.9114 22.176 28.8134 26.276 23.7734 26.276H23.7194C21.2794 26.268 18.9934 25.312 17.2814 23.584C15.5654 21.858 14.6274 19.566 14.6373 17.132C14.6373 12.1 18.7354 8 23.7734 8ZM23.7734 11C20.3894 11 17.6374 13.754 17.6374 17.138C17.6314 18.778 18.2594 20.312 19.4094 21.47C20.5594 22.628 22.0914 23.27 23.7234 23.276L23.7734 24.776V23.276C27.1574 23.276 29.9114 20.524 29.9114 17.138C29.9114 13.754 27.1574 11 23.7734 11Z" fill="black"/>
</svg>
